<svg xmlns="http://www.w3.org/2000/svg" xmlns:xlink="http://www.w3.org/1999/xlink" width="50" zoomAndPan="magnify" viewBox="0 0 37.5 37.499999" height="50" preserveAspectRatio="xMidYMid meet" version="1.0"><defs><clipPath id="id1"><path d="M 0 0 L 37.007812 0 L 37.007812 37.007812 L 0 37.007812 Z M 0 0 " clip-rule="nonzero"/></clipPath><clipPath id="id2"><path d="M 5.9375 0.511719 L 31.4375 0.511719 L 31.4375 37.007812 L 5.9375 37.007812 Z M 5.9375 0.511719 " clip-rule="nonzero"/></clipPath></defs><g clip-path="url(#id1)"><path fill="rgb(100%, 100%, 100%)" d="M 0 0 L 37.5 0 L 37.5 45 L 0 45 Z M 0 0 " fill-opacity="1" fill-rule="nonzero"/><path fill="rgb(100%, 100%, 100%)" d="M 0 0 L 37.5 0 L 37.5 37.5 L 0 37.5 Z M 0 0 " fill-opacity="1" fill-rule="nonzero"/><path fill="rgb(100%, 100%, 100%)" d="M 0 0 L 37.5 0 L 37.5 37.5 L 0 37.5 Z M 0 0 " fill-opacity="1" fill-rule="nonzero"/><path fill="rgb(100%, 100%, 100%)" d="M 0 0 L 37.5 0 L 37.5 37.5 L 0 37.5 Z M 0 0 " fill-opacity="1" fill-rule="nonzero"/></g><g clip-path="url(#id2)"><path fill="rgb(0%, 50.19989%, 21.569824%)" d="M 22.609375 12.066406 L 22.609375 8.867188 C 22.902344 8.761719 23.140625 8.582031 23.320312 8.328125 C 23.5 8.070312 23.589844 7.785156 23.589844 7.472656 L 23.589844 6.972656 C 23.589844 6.683594 23.511719 6.417969 23.359375 6.171875 C 23.203125 5.929688 22.996094 5.746094 22.738281 5.625 L 23.679688 2.4375 C 23.746094 2.210938 23.761719 1.984375 23.71875 1.75 C 23.679688 1.519531 23.589844 1.308594 23.453125 1.121094 C 23.3125 0.933594 23.140625 0.785156 22.933594 0.679688 C 22.722656 0.574219 22.503906 0.519531 22.273438 0.519531 L 15.101562 0.519531 C 14.871094 0.519531 14.648438 0.574219 14.441406 0.679688 C 14.234375 0.785156 14.0625 0.933594 13.921875 1.121094 C 13.785156 1.308594 13.695312 1.519531 13.652344 1.75 C 13.613281 1.984375 13.625 2.210938 13.691406 2.4375 L 14.636719 5.625 C 14.375 5.746094 14.167969 5.929688 14.015625 6.171875 C 13.859375 6.417969 13.785156 6.683594 13.78125 6.972656 L 13.78125 7.46875 C 13.785156 7.785156 13.875 8.070312 14.054688 8.324219 C 14.234375 8.582031 14.46875 8.761719 14.761719 8.867188 L 14.761719 12.066406 C 9.550781 13.773438 5.9375 18.769531 5.9375 24.347656 C 5.9375 31.464844 11.65625 37.25 18.6875 37.25 C 25.71875 37.25 31.4375 31.464844 31.4375 24.347656 C 31.4375 18.769531 27.824219 13.773438 22.609375 12.066406 Z M 22.609375 7.46875 C 22.609375 7.605469 22.5625 7.722656 22.464844 7.820312 C 22.371094 7.917969 22.253906 7.964844 22.121094 7.964844 L 15.253906 7.964844 C 15.121094 7.964844 15.003906 7.917969 14.910156 7.820312 C 14.8125 7.722656 14.765625 7.605469 14.765625 7.46875 L 14.765625 6.972656 C 14.765625 6.835938 14.8125 6.71875 14.910156 6.621094 C 15.003906 6.527344 15.121094 6.476562 15.253906 6.476562 L 22.121094 6.476562 C 22.253906 6.476562 22.371094 6.527344 22.464844 6.621094 C 22.5625 6.71875 22.609375 6.835938 22.609375 6.972656 Z M 14.707031 1.714844 C 14.804688 1.578125 14.9375 1.511719 15.101562 1.511719 L 22.273438 1.511719 C 22.351562 1.511719 22.421875 1.53125 22.492188 1.566406 C 22.5625 1.601562 22.621094 1.648438 22.664062 1.714844 C 22.710938 1.777344 22.742188 1.847656 22.753906 1.921875 C 22.769531 2 22.765625 2.078125 22.742188 2.152344 L 21.753906 5.484375 L 15.621094 5.484375 L 14.632812 2.152344 C 14.585938 1.992188 14.609375 1.847656 14.707031 1.714844 Z M 15.390625 12.910156 C 15.628906 12.839844 15.746094 12.683594 15.746094 12.433594 L 15.746094 8.957031 L 21.628906 8.957031 L 21.628906 12.433594 C 21.628906 12.683594 21.746094 12.839844 21.984375 12.910156 C 23.574219 13.382812 25 14.160156 26.265625 15.246094 C 23.585938 15.367188 21 15.933594 18.507812 16.9375 C 15.378906 18.203125 12.003906 18.71875 8.46875 18.492188 C 9.21875 17.140625 10.195312 15.984375 11.390625 15.019531 C 12.589844 14.050781 13.921875 13.347656 15.390625 12.910156 Z M 18.6875 36.257812 C 12.199219 36.257812 6.917969 30.914062 6.917969 24.347656 C 6.921875 22.636719 7.273438 21.007812 7.976562 19.457031 C 8.671875 19.511719 9.367188 19.546875 10.050781 19.546875 C 13.097656 19.558594 16.035156 18.996094 18.867188 17.859375 C 21.5625 16.773438 24.359375 16.226562 27.257812 16.21875 C 28.277344 17.320312 29.066406 18.570312 29.617188 19.976562 C 30.167969 21.378906 30.445312 22.835938 30.449219 24.347656 C 30.453125 30.914062 25.175781 36.257812 18.6875 36.257812 Z M 18.6875 36.257812 " fill-opacity="1" fill-rule="nonzero"/></g><path fill="rgb(0%, 50.19989%, 21.569824%)" d="M 26 24.925781 C 25.804688 24.925781 25.617188 24.964844 25.4375 25.039062 C 25.257812 25.113281 25.097656 25.222656 24.960938 25.363281 C 24.824219 25.5 24.71875 25.664062 24.640625 25.84375 C 24.566406 26.027344 24.53125 26.21875 24.53125 26.414062 C 24.53125 26.613281 24.566406 26.800781 24.640625 26.984375 C 24.71875 27.167969 24.824219 27.328125 24.960938 27.46875 C 25.097656 27.605469 25.257812 27.714844 25.4375 27.789062 C 25.617188 27.867188 25.804688 27.902344 26 27.902344 C 26.195312 27.902344 26.382812 27.867188 26.5625 27.789062 C 26.746094 27.714844 26.902344 27.605469 27.042969 27.46875 C 27.179688 27.328125 27.285156 27.167969 27.359375 26.984375 C 27.433594 26.800781 27.472656 26.613281 27.472656 26.414062 C 27.472656 26.21875 27.433594 26.027344 27.359375 25.84375 C 27.285156 25.664062 27.179688 25.5 27.039062 25.363281 C 26.902344 25.222656 26.742188 25.113281 26.5625 25.039062 C 26.382812 24.964844 26.195312 24.925781 26 24.925781 Z M 26 26.910156 C 25.867188 26.910156 25.75 26.859375 25.652344 26.765625 C 25.558594 26.667969 25.511719 26.550781 25.511719 26.414062 C 25.511719 26.277344 25.558594 26.160156 25.652344 26.0625 C 25.75 25.964844 25.863281 25.914062 26 25.914062 C 26.136719 25.914062 26.25 25.964844 26.347656 26.0625 C 26.441406 26.160156 26.492188 26.273438 26.492188 26.414062 C 26.492188 26.550781 26.445312 26.667969 26.347656 26.765625 C 26.253906 26.863281 26.136719 26.910156 26 26.910156 Z M 26 26.910156 " fill-opacity="1" fill-rule="nonzero"/><path fill="rgb(0%, 50.19989%, 21.569824%)" d="M 21.589844 26.910156 C 21.394531 26.910156 21.207031 26.949219 21.027344 27.023438 C 20.847656 27.101562 20.6875 27.207031 20.550781 27.347656 C 20.410156 27.488281 20.304688 27.648438 20.230469 27.832031 C 20.15625 28.011719 20.117188 28.203125 20.117188 28.402344 C 20.117188 28.597656 20.15625 28.789062 20.230469 28.96875 C 20.304688 29.152344 20.410156 29.3125 20.550781 29.453125 C 20.6875 29.59375 20.847656 29.699219 21.027344 29.777344 C 21.207031 29.851562 21.394531 29.890625 21.589844 29.890625 C 21.785156 29.890625 21.972656 29.851562 22.152344 29.777344 C 22.332031 29.699219 22.492188 29.59375 22.628906 29.453125 C 22.769531 29.3125 22.875 29.152344 22.949219 28.96875 C 23.023438 28.789062 23.0625 28.597656 23.0625 28.402344 C 23.0625 28.203125 23.023438 28.011719 22.949219 27.832031 C 22.875 27.648438 22.765625 27.488281 22.628906 27.347656 C 22.492188 27.207031 22.332031 27.101562 22.152344 27.023438 C 21.972656 26.949219 21.785156 26.910156 21.589844 26.910156 Z M 21.589844 28.894531 C 21.453125 28.894531 21.339844 28.847656 21.242188 28.75 C 21.148438 28.652344 21.097656 28.535156 21.097656 28.398438 C 21.097656 28.261719 21.148438 28.144531 21.242188 28.046875 C 21.339844 27.949219 21.453125 27.902344 21.589844 27.902344 C 21.726562 27.902344 21.839844 27.949219 21.9375 28.046875 C 22.03125 28.144531 22.082031 28.261719 22.082031 28.398438 C 22.082031 28.535156 22.03125 28.652344 21.9375 28.75 C 21.839844 28.847656 21.726562 28.894531 21.589844 28.894531 Z M 21.589844 28.894531 " fill-opacity="1" fill-rule="nonzero"/><path fill="rgb(0%, 50.19989%, 21.569824%)" d="M 22.570312 21.949219 C 22.375 21.949219 22.1875 21.984375 22.007812 22.0625 C 21.824219 22.136719 21.667969 22.242188 21.527344 22.382812 C 21.390625 22.523438 21.285156 22.683594 21.210938 22.867188 C 21.136719 23.050781 21.097656 23.238281 21.097656 23.4375 C 21.097656 23.632812 21.136719 23.824219 21.210938 24.007812 C 21.285156 24.1875 21.390625 24.351562 21.527344 24.488281 C 21.667969 24.628906 21.824219 24.738281 22.007812 24.8125 C 22.1875 24.886719 22.375 24.925781 22.570312 24.925781 C 22.765625 24.925781 22.953125 24.886719 23.132812 24.8125 C 23.3125 24.738281 23.472656 24.628906 23.609375 24.488281 C 23.746094 24.351562 23.851562 24.1875 23.929688 24.007812 C 24.003906 23.824219 24.039062 23.632812 24.039062 23.4375 C 24.039062 23.238281 24.003906 23.050781 23.925781 22.867188 C 23.851562 22.683594 23.746094 22.523438 23.609375 22.382812 C 23.46875 22.246094 23.3125 22.136719 23.132812 22.0625 C 22.953125 21.984375 22.765625 21.949219 22.570312 21.949219 Z M 22.570312 23.929688 C 22.433594 23.929688 22.316406 23.882812 22.222656 23.785156 C 22.125 23.6875 22.078125 23.570312 22.078125 23.433594 C 22.078125 23.296875 22.125 23.179688 22.222656 23.082031 C 22.316406 22.988281 22.433594 22.9375 22.566406 22.9375 C 22.703125 22.9375 22.820312 22.984375 22.914062 23.082031 C 23.011719 23.179688 23.058594 23.296875 23.058594 23.433594 C 23.058594 23.570312 23.011719 23.6875 22.917969 23.785156 C 22.820312 23.882812 22.703125 23.933594 22.570312 23.933594 Z M 22.570312 23.929688 " fill-opacity="1" fill-rule="nonzero"/></svg>