<svg xmlns="http://www.w3.org/2000/svg" xmlns:xlink="http://www.w3.org/1999/xlink" width="50" zoomAndPan="magnify" viewBox="0 0 37.5 37.499999" height="50" preserveAspectRatio="xMidYMid meet" version="1.0"><defs><clipPath id="id1"><path d="M 0 0 L 37.007812 0 L 37.007812 37.007812 L 0 37.007812 Z M 0 0 " clip-rule="nonzero"/></clipPath><clipPath id="id2"><path d="M 6 0 L 32 0 L 32 36.75 L 6 36.75 Z M 6 0 " clip-rule="nonzero"/></clipPath></defs><g clip-path="url(#id1)"><path fill="rgb(100%, 100%, 100%)" d="M 0 0 L 37.5 0 L 37.5 45 L 0 45 Z M 0 0 " fill-opacity="1" fill-rule="nonzero"/><path fill="rgb(100%, 100%, 100%)" d="M 0 0 L 37.5 0 L 37.5 37.5 L 0 37.5 Z M 0 0 " fill-opacity="1" fill-rule="nonzero"/><path fill="rgb(100%, 100%, 100%)" d="M 0 0 L 37.5 0 L 37.5 37.5 L 0 37.5 Z M 0 0 " fill-opacity="1" fill-rule="nonzero"/><path fill="rgb(100%, 100%, 100%)" d="M 0 0 L 37.5 0 L 37.5 37.5 L 0 37.5 Z M 0 0 " fill-opacity="1" fill-rule="nonzero"/></g><g clip-path="url(#id2)"><path fill="rgb(100%, 56.858826%, 30.198669%)" d="M 22.824219 12.144531 L 22.824219 8.039062 L 23.972656 8.039062 C 24.128906 8.039062 24.265625 7.984375 24.378906 7.871094 C 24.488281 7.757812 24.546875 7.625 24.546875 7.464844 L 24.546875 4.019531 C 24.546875 3.859375 24.488281 3.726562 24.378906 3.613281 C 24.265625 3.5 24.128906 3.445312 23.972656 3.445312 L 21.675781 3.445312 L 21.675781 0.574219 C 21.675781 0.414062 21.621094 0.28125 21.507812 0.167969 C 21.398438 0.0546875 21.261719 0 21.101562 0 L 16.511719 0 C 16.355469 0 16.21875 0.0546875 16.105469 0.167969 C 15.996094 0.28125 15.9375 0.414062 15.9375 0.574219 L 15.9375 3.445312 L 13.644531 3.445312 C 13.484375 3.445312 13.351562 3.5 13.238281 3.613281 C 13.125 3.726562 13.070312 3.859375 13.070312 4.019531 L 13.070312 7.464844 C 13.070312 7.625 13.125 7.757812 13.238281 7.871094 C 13.351562 7.984375 13.484375 8.039062 13.644531 8.039062 L 14.792969 8.039062 L 14.792969 12.144531 C 14.324219 12.300781 13.863281 12.484375 13.417969 12.695312 C 12.96875 12.910156 12.535156 13.144531 12.117188 13.40625 C 11.699219 13.671875 11.292969 13.957031 10.910156 14.265625 C 10.523438 14.574219 10.15625 14.90625 9.808594 15.257812 C 9.464844 15.613281 9.136719 15.984375 8.835938 16.375 C 8.53125 16.765625 8.253906 17.171875 7.996094 17.597656 C 7.742188 18.023438 7.511719 18.457031 7.308594 18.910156 C 7.105469 19.359375 6.925781 19.820312 6.777344 20.292969 C 6.628906 20.765625 6.503906 21.246094 6.410156 21.730469 C 6.316406 22.214844 6.253906 22.707031 6.21875 23.199219 C 6.179688 23.695312 6.175781 24.1875 6.195312 24.683594 C 6.21875 25.175781 6.269531 25.667969 6.347656 26.15625 C 6.429688 26.644531 6.535156 27.128906 6.671875 27.601562 C 6.808594 28.078125 6.972656 28.542969 7.164062 29 C 7.355469 29.457031 7.574219 29.902344 7.816406 30.332031 C 8.058594 30.761719 8.328125 31.179688 8.617188 31.578125 C 8.910156 31.976562 9.226562 32.359375 9.5625 32.722656 C 9.898438 33.082031 10.253906 33.425781 10.632812 33.746094 C 11.007812 34.066406 11.402344 34.363281 11.816406 34.636719 C 12.226562 34.914062 12.652344 35.160156 13.09375 35.386719 C 13.535156 35.609375 13.988281 35.804688 14.453125 35.976562 C 14.917969 36.148438 15.390625 36.292969 15.871094 36.40625 C 16.351562 36.519531 16.839844 36.609375 17.328125 36.664062 C 17.820312 36.722656 18.3125 36.753906 18.808594 36.753906 C 19.300781 36.753906 19.796875 36.722656 20.285156 36.664062 C 20.777344 36.609375 21.265625 36.519531 21.746094 36.40625 C 22.226562 36.292969 22.699219 36.148438 23.164062 35.976562 C 23.628906 35.804688 24.078125 35.609375 24.519531 35.386719 C 24.960938 35.160156 25.386719 34.914062 25.800781 34.636719 C 26.210938 34.363281 26.605469 34.066406 26.984375 33.746094 C 27.359375 33.425781 27.71875 33.082031 28.054688 32.722656 C 28.390625 32.359375 28.703125 31.976562 28.996094 31.578125 C 29.289062 31.179688 29.554688 30.761719 29.800781 30.332031 C 30.042969 29.902344 30.261719 29.457031 30.453125 29 C 30.640625 28.542969 30.804688 28.078125 30.941406 27.601562 C 31.078125 27.128906 31.1875 26.644531 31.265625 26.15625 C 31.347656 25.667969 31.398438 25.175781 31.417969 24.683594 C 31.441406 24.1875 31.433594 23.695312 31.398438 23.199219 C 31.363281 22.707031 31.296875 22.214844 31.203125 21.730469 C 31.109375 21.246094 30.988281 20.765625 30.839844 20.292969 C 30.6875 19.820312 30.511719 19.359375 30.308594 18.910156 C 30.105469 18.457031 29.875 18.023438 29.617188 17.597656 C 29.363281 17.171875 29.085938 16.765625 28.78125 16.375 C 28.476562 15.984375 28.152344 15.613281 27.804688 15.257812 C 27.460938 14.90625 27.09375 14.574219 26.707031 14.265625 C 26.320312 13.957031 25.917969 13.671875 25.5 13.40625 C 25.078125 13.144531 24.644531 12.910156 24.199219 12.695312 C 23.75 12.484375 23.292969 12.300781 22.824219 12.144531 Z M 17.085938 1.148438 L 20.53125 1.148438 L 20.53125 3.445312 L 17.085938 3.445312 Z M 14.21875 4.59375 L 23.398438 4.59375 L 23.398438 6.890625 L 14.21875 6.890625 Z M 18.808594 35.601562 C 18.125 35.601562 17.445312 35.542969 16.773438 35.417969 C 16.101562 35.296875 15.445312 35.117188 14.804688 34.878906 C 14.164062 34.640625 13.546875 34.347656 12.960938 34 C 12.371094 33.652344 11.820312 33.253906 11.300781 32.804688 C 10.785156 32.359375 10.3125 31.867188 9.882812 31.335938 C 9.453125 30.804688 9.074219 30.238281 8.742188 29.636719 C 8.414062 29.039062 8.144531 28.414062 7.925781 27.765625 C 7.707031 27.117188 7.550781 26.453125 7.453125 25.777344 C 7.351562 25.101562 7.316406 24.417969 7.339844 23.734375 C 7.359375 23.050781 7.445312 22.375 7.585938 21.707031 C 7.730469 21.039062 7.933594 20.386719 8.191406 19.753906 C 8.453125 19.121094 8.765625 18.515625 9.132812 17.941406 C 9.503906 17.363281 9.917969 16.824219 10.382812 16.324219 C 10.847656 15.820312 11.351562 15.363281 11.898438 14.949219 C 12.441406 14.539062 13.019531 14.179688 13.632812 13.871094 C 14.242188 13.5625 14.875 13.308594 15.527344 13.113281 C 15.800781 13.03125 15.9375 12.851562 15.9375 12.5625 L 15.9375 8.039062 L 21.675781 8.039062 L 21.675781 12.5625 C 21.675781 12.851562 21.8125 13.03125 22.085938 13.113281 C 22.742188 13.308594 23.375 13.5625 23.984375 13.871094 C 24.59375 14.179688 25.171875 14.539062 25.71875 14.949219 C 26.265625 15.363281 26.769531 15.820312 27.234375 16.324219 C 27.699219 16.824219 28.113281 17.363281 28.480469 17.941406 C 28.851562 18.515625 29.164062 19.121094 29.421875 19.753906 C 29.683594 20.386719 29.882812 21.039062 30.027344 21.707031 C 30.171875 22.375 30.253906 23.050781 30.277344 23.734375 C 30.300781 24.417969 30.261719 25.101562 30.164062 25.777344 C 30.066406 26.453125 29.90625 27.117188 29.691406 27.765625 C 29.472656 28.414062 29.199219 29.039062 28.871094 29.636719 C 28.542969 30.238281 28.164062 30.804688 27.734375 31.335938 C 27.304688 31.867188 26.832031 32.355469 26.316406 32.804688 C 25.796875 33.253906 25.246094 33.648438 24.65625 34 C 24.070312 34.347656 23.453125 34.640625 22.8125 34.878906 C 22.171875 35.117188 21.515625 35.296875 20.84375 35.417969 C 20.171875 35.539062 19.492188 35.601562 18.808594 35.601562 Z M 18.808594 35.601562 " fill-opacity="1" fill-rule="nonzero"/></g><path fill="rgb(100%, 56.858826%, 30.198669%)" d="M 28.773438 23.664062 C 28.332031 23.480469 27.90625 23.273438 27.492188 23.035156 C 26.121094 22.1875 24.628906 21.78125 23.015625 21.820312 C 21.398438 21.78125 19.902344 22.1875 18.527344 23.039062 C 17.324219 23.792969 16.015625 24.152344 14.597656 24.117188 C 13.179688 24.152344 11.867188 23.792969 10.664062 23.039062 C 10.238281 22.796875 9.796875 22.578125 9.34375 22.386719 C 9.261719 22.351562 9.175781 22.335938 9.085938 22.34375 C 9 22.351562 8.914062 22.375 8.839844 22.421875 C 8.761719 22.464844 8.699219 22.523438 8.648438 22.597656 C 8.601562 22.671875 8.570312 22.753906 8.558594 22.84375 C 8.503906 23.265625 8.476562 23.691406 8.480469 24.117188 C 8.480469 24.792969 8.546875 25.464844 8.675781 26.128906 C 8.808594 26.792969 9.003906 27.4375 9.261719 28.0625 C 9.519531 28.6875 9.835938 29.28125 10.210938 29.847656 C 10.585938 30.410156 11.011719 30.929688 11.488281 31.410156 C 11.96875 31.890625 12.488281 32.320312 13.046875 32.695312 C 13.609375 33.074219 14.203125 33.390625 14.824219 33.652344 C 15.449219 33.914062 16.09375 34.113281 16.757812 34.246094 C 17.417969 34.382812 18.089844 34.449219 18.765625 34.453125 C 19.441406 34.457031 20.113281 34.390625 20.777344 34.261719 C 21.441406 34.132812 22.085938 33.941406 22.710938 33.6875 C 23.335938 33.429688 23.933594 33.117188 24.496094 32.742188 C 25.0625 32.371094 25.585938 31.945312 26.066406 31.46875 C 26.546875 30.996094 26.976562 30.476562 27.355469 29.917969 C 27.738281 29.355469 28.058594 28.765625 28.320312 28.140625 C 28.585938 27.519531 28.785156 26.875 28.921875 26.210938 C 29.058594 25.550781 29.132812 24.878906 29.136719 24.203125 C 29.140625 23.9375 29.015625 23.757812 28.773438 23.664062 Z M 18.808594 33.304688 C 18.207031 33.304688 17.609375 33.246094 17.015625 33.125 C 16.425781 33.007812 15.851562 32.832031 15.296875 32.601562 C 14.738281 32.371094 14.210938 32.089844 13.710938 31.753906 C 13.207031 31.417969 12.746094 31.035156 12.320312 30.609375 C 11.894531 30.183594 11.511719 29.71875 11.175781 29.21875 C 10.84375 28.71875 10.558594 28.1875 10.328125 27.632812 C 10.097656 27.074219 9.921875 26.5 9.804688 25.910156 C 9.6875 25.316406 9.628906 24.71875 9.625 24.117188 C 9.625 24.007812 9.628906 23.894531 9.632812 23.785156 C 9.792969 23.871094 9.953125 23.957031 10.117188 24.046875 C 11.488281 24.898438 12.980469 25.304688 14.597656 25.265625 C 16.210938 25.304688 17.703125 24.898438 19.078125 24.046875 C 20.28125 23.292969 21.59375 22.933594 23.015625 22.96875 C 24.429688 22.933594 25.742188 23.292969 26.945312 24.042969 C 27.269531 24.222656 27.605469 24.40625 27.976562 24.574219 C 27.945312 25.15625 27.863281 25.730469 27.722656 26.296875 C 27.582031 26.863281 27.390625 27.414062 27.144531 27.941406 C 26.902344 28.472656 26.609375 28.976562 26.269531 29.449219 C 25.933594 29.925781 25.550781 30.363281 25.128906 30.765625 C 24.707031 31.167969 24.25 31.527344 23.757812 31.839844 C 23.269531 32.15625 22.753906 32.421875 22.210938 32.640625 C 21.671875 32.859375 21.113281 33.023438 20.542969 33.132812 C 19.96875 33.246094 19.390625 33.304688 18.808594 33.304688 Z M 18.808594 33.304688 " fill-opacity="1" fill-rule="nonzero"/></svg>