<svg xmlns="http://www.w3.org/2000/svg" xmlns:xlink="http://www.w3.org/1999/xlink" width="50" zoomAndPan="magnify" viewBox="0 0 37.5 37.499999" height="50" preserveAspectRatio="xMidYMid meet" version="1.0"><defs><clipPath id="id1"><path d="M 0 0 L 37.007812 0 L 37.007812 37.007812 L 0 37.007812 Z M 0 0 " clip-rule="nonzero"/></clipPath><clipPath id="id2"><path d="M 7 1.28125 L 32 1.28125 L 32 37 L 7 37 Z M 7 1.28125 " clip-rule="nonzero"/></clipPath><clipPath id="id3"><path d="M 1.75 2 L 7 2 L 7 8 L 1.75 8 Z M 1.75 2 " clip-rule="nonzero"/></clipPath></defs><g clip-path="url(#id1)"><path fill="rgb(100%, 100%, 100%)" d="M 0 0 L 37.5 0 L 37.5 45 L 0 45 Z M 0 0 " fill-opacity="1" fill-rule="nonzero"/><path fill="rgb(100%, 100%, 100%)" d="M 0 0 L 37.5 0 L 37.5 37.5 L 0 37.5 Z M 0 0 " fill-opacity="1" fill-rule="nonzero"/><path fill="rgb(100%, 100%, 100%)" d="M 0 0 L 37.5 0 L 37.5 37.5 L 0 37.5 Z M 0 0 " fill-opacity="1" fill-rule="nonzero"/><path fill="rgb(100%, 100%, 100%)" d="M 0 0 L 37.5 0 L 37.5 37.5 L 0 37.5 Z M 0 0 " fill-opacity="1" fill-rule="nonzero"/></g><g clip-path="url(#id2)"><path fill="rgb(100%, 8.628845%, 8.628845%)" d="M 26.347656 16.917969 C 23.058594 13.90625 20.8125 12.855469 20.089844 7.855469 C 20.089844 7.667969 20.066406 7.507812 20.066406 7.398438 C 20.066406 7.101562 20.039062 6.941406 19.984375 6.886719 C 20.011719 6.859375 20.039062 6.832031 20.089844 6.808594 C 20.277344 6.644531 20.386719 6.511719 20.359375 6.429688 C 20.332031 6.351562 20.171875 6.375 19.929688 6.402344 C 19.851562 6.402344 19.742188 6.429688 19.609375 6.457031 C 19.664062 6.375 19.691406 6.269531 19.742188 6.082031 C 19.796875 5.8125 19.851562 5.410156 19.90625 4.816406 C 19.90625 4.65625 19.929688 4.496094 19.929688 4.332031 C 19.929688 4.144531 19.957031 3.984375 19.957031 3.742188 C 19.957031 2.558594 19.15625 1.777344 18.140625 1.589844 C 16.722656 1.320312 15.304688 2.234375 15.011719 3.769531 C 14.851562 4.628906 15.117188 5.410156 15.414062 5.839844 C 15.707031 6.296875 16.027344 6.457031 16.054688 6.402344 C 16.105469 6.351562 15.921875 6.082031 15.785156 5.652344 C 15.625 5.21875 15.546875 4.574219 15.734375 3.957031 C 16.054688 2.933594 17.015625 2.453125 17.898438 2.640625 C 18.433594 2.773438 18.863281 3.125 18.886719 3.769531 C 18.886719 4.171875 18.886719 4.496094 18.886719 4.789062 C 18.886719 5.382812 18.914062 5.785156 18.941406 6.082031 C 18.96875 6.324219 19.023438 6.457031 19.074219 6.539062 C 19.046875 6.539062 19.046875 6.539062 19.023438 6.539062 C 18.351562 6.59375 17.550781 6.566406 17.042969 6.511719 C 16.105469 6.429688 15.625 6.351562 15.359375 6.402344 C 15.089844 6.429688 15.039062 6.566406 15.011719 6.726562 C 14.984375 6.886719 14.957031 6.996094 15.199219 7.15625 C 15.332031 7.238281 15.519531 7.316406 15.839844 7.398438 C 15.839844 7.585938 15.8125 7.773438 15.8125 8.015625 C 15.707031 8.984375 15.546875 10.355469 15.039062 11.96875 C 13.40625 17.078125 9.636719 19.175781 8.140625 23.449219 C 7.230469 26.03125 7.363281 29.097656 8.621094 31.703125 C 9.636719 33.9375 11.214844 35.09375 13.328125 36.058594 C 16.535156 37.242188 20.199219 37.082031 23.300781 36.328125 C 29.691406 34.796875 32.5 28.15625 30.625 22.964844 C 29.957031 21.085938 28.675781 19.015625 26.347656 16.917969 Z M 23.058594 35.28125 C 20.199219 35.980469 16.722656 36.195312 13.699219 35.121094 C 8.726562 32.886719 7.496094 27.914062 8.886719 23.691406 C 9.984375 20.332031 12.980469 17.804688 14.421875 14.765625 C 14.878906 13.851562 15.199219 12.9375 15.4375 12.105469 C 15.921875 10.410156 16 9.011719 16 8.042969 C 16 7.828125 16 7.640625 15.972656 7.480469 C 16.242188 7.53125 16.535156 7.585938 16.9375 7.613281 C 17.230469 7.640625 17.605469 7.640625 18.003906 7.585938 C 18.40625 7.53125 18.835938 7.453125 19.183594 7.292969 C 19.371094 7.210938 19.558594 7.128906 19.691406 7.050781 C 19.664062 7.128906 19.636719 7.238281 19.609375 7.371094 C 19.582031 7.507812 19.558594 7.667969 19.558594 7.855469 C 19.476562 13.019531 23.460938 15.574219 25.679688 17.644531 C 27.390625 19.230469 28.863281 21.136719 29.636719 23.316406 C 31.269531 27.96875 28.753906 33.882812 23.058594 35.28125 Z M 23.058594 35.28125 " fill-opacity="1" fill-rule="nonzero"/></g><path fill="rgb(100%, 8.628845%, 8.628845%)" d="M 11.960938 9.523438 C 12.015625 9.414062 12.097656 9.199219 12.070312 8.769531 C 11.828125 6.726562 9.582031 5.058594 7.738281 6.214844 C 6.132812 7.183594 5.570312 9.363281 7.230469 10.734375 C 8.113281 11.433594 9.289062 11.699219 10.386719 11.40625 C 10.867188 11.269531 11.265625 11.027344 11.507812 10.734375 C 11.75 10.4375 11.800781 10.113281 11.800781 9.898438 C 11.800781 9.683594 11.777344 9.601562 11.722656 9.601562 C 11.695312 9.601562 11.640625 9.710938 11.589844 9.871094 C 11.507812 10.035156 11.402344 10.25 11.1875 10.4375 C 10.972656 10.625 10.652344 10.757812 10.25 10.8125 C 9.34375 10.921875 8.433594 10.625 7.792969 10.035156 C 6.777344 9.09375 7.175781 7.773438 8.273438 7.15625 C 9.449219 6.429688 10.707031 7.558594 11.265625 8.929688 C 11.375 9.226562 11.429688 9.386719 11.507812 9.496094 C 11.5625 9.578125 11.640625 9.601562 11.722656 9.601562 C 11.828125 9.628906 11.910156 9.628906 11.960938 9.523438 Z M 11.960938 9.523438 " fill-opacity="1" fill-rule="nonzero"/><g clip-path="url(#id3)"><path fill="rgb(100%, 8.628845%, 8.628845%)" d="M 5.707031 5.867188 C 5.785156 5.8125 5.917969 5.679688 5.972656 5.382812 C 6.1875 4.28125 5.277344 3.230469 4.183594 2.855469 C 3.914062 2.773438 3.59375 2.746094 3.246094 2.800781 C 2.363281 2.960938 1.800781 3.824219 1.773438 4.710938 C 1.75 5.167969 1.882812 5.625 2.148438 6.027344 C 2.605469 6.726562 3.40625 7.15625 4.289062 6.96875 C 4.636719 6.914062 4.902344 6.753906 5.117188 6.566406 C 5.304688 6.402344 5.410156 6.214844 5.464844 6.082031 C 5.519531 5.945312 5.492188 5.867188 5.464844 5.839844 C 5.386719 5.8125 5.222656 6.054688 4.875 6.214844 C 4.691406 6.296875 4.476562 6.351562 4.234375 6.351562 C 3.648438 6.351562 3.191406 6 2.953125 5.542969 C 2.816406 5.300781 2.792969 5.03125 2.816406 4.761719 C 2.925781 3.582031 4.15625 3.632812 4.875 4.546875 C 5.117188 4.871094 5.199219 5.140625 5.222656 5.328125 C 5.25 5.515625 5.277344 5.625 5.332031 5.703125 C 5.359375 5.785156 5.4375 5.8125 5.492188 5.839844 C 5.546875 5.894531 5.625 5.917969 5.707031 5.867188 Z M 5.707031 5.867188 " fill-opacity="1" fill-rule="nonzero"/></g></svg>